<?xml version="1.0" encoding="UTF-8" standalone="no"?>
<svg viewBox="0 0 50 50"
 xmlns="http://www.w3.org/2000/svg" xmlns:xlink="http://www.w3.org/1999/xlink"  version="1.2" baseProfile="tiny">
<title>Qt SVG Document</title>
<desc>Generated with Qt</desc>
<defs>
</defs>
<g fill="none" stroke="black" stroke-width="1" fill-rule="evenodd" stroke-linecap="square" stroke-linejoin="bevel" >

<g fill="none" stroke="#000000" stroke-opacity="1" stroke-width="1" stroke-linecap="square" stroke-linejoin="bevel" transform="matrix(1,0,0,1,0,0)"
font-family="SF Pro Display" font-size="10" font-weight="400" font-style="normal" 
>
</g>

<g fill="#89b4fa" fill-opacity="0.6" stroke="#89b4fa" stroke-opacity="0.6" stroke-width="1.001" stroke-linecap="square" stroke-linejoin="bevel" transform="matrix(1,0,0,1,2.5,2.5)"
font-family="SF Pro Display" font-size="10" font-weight="400" font-style="normal" 
>
<path vector-effect="non-scaling-stroke" fill-rule="evenodd" d="M0,4.5 C0,2.01472 2.01472,0 4.5,0 L40.5,0 C42.9853,0 45,2.01472 45,4.5 L45,40.5 C45,42.9853 42.9853,45 40.5,45 L4.5,45 C2.01472,45 0,42.9853 0,40.5 L0,4.5"/>
</g>

<g fill="none" stroke="#000000" stroke-opacity="1" stroke-width="1" stroke-linecap="square" stroke-linejoin="bevel" transform="matrix(1,0,0,1,0,0)"
font-family="SF Pro Display" font-size="10" font-weight="400" font-style="normal" 
>
</g>

<g fill="none" stroke="#cdd6f4" stroke-opacity="1" stroke-width="1.001" stroke-linecap="square" stroke-linejoin="bevel" transform="matrix(2.5,0,0,2.5,2.5,2.5)"
font-family="SF Pro Display" font-size="10" font-weight="400" font-style="normal" 
>
</g>

<g fill="none" stroke="#cdd6f4" stroke-opacity="1" stroke-width="1.001" stroke-linecap="round" stroke-linejoin="round" transform="matrix(2.5,0,0,2.5,2.5,2.5)"
font-family="SF Pro Display" font-size="10" font-weight="400" font-style="normal" 
>
<path vector-effect="none" fill-rule="evenodd" d="M4.5,9 L9,4.5 L13.5,9 L9,13.5 L4.5,9"/>
</g>

<g fill="none" stroke="#cdd6f4" stroke-opacity="1" stroke-width="1.001" stroke-linecap="square" stroke-linejoin="bevel" transform="matrix(2.5,0,0,2.5,2.5,2.5)"
font-family="SF Pro Display" font-size="10" font-weight="400" font-style="normal" 
>
</g>

<g fill="none" stroke="#000000" stroke-opacity="1" stroke-width="1" stroke-linecap="square" stroke-linejoin="bevel" transform="matrix(1,0,0,1,0,0)"
font-family="SF Pro Display" font-size="10" font-weight="400" font-style="normal" 
>
</g>
</g>
</svg>
